<svg width="128" height="128" viewBox="0 0 100 100" fill="none" xmlns="http://www.w3.org/2000/svg">
  <!-- Background Seal -->
  <circle cx="50" cy="50" r="48" fill="#F8F8F8" stroke="#D4AF37" stroke-width="1.5" />

  <!-- Intricate Sunburst/Lotus Ring -->
  <g>
    <path d="M50 4 L51 8 L49 8 Z" fill="#D4AF37" transform="rotate(0 50 50)" />
    <path d="M50 4 L51 8 L49 8 Z" fill="#D4AF37" transform="rotate(10 50 50)" />
    <path d="M50 4 L51 8 L49 8 Z" fill="#D4AF37" transform="rotate(20 50 50)" />
    <path d="M50 4 L51 8 L49 8 Z" fill="#D4AF37" transform="rotate(30 50 50)" />
    <path d="M50 4 L51 8 L49 8 Z" fill="#D4AF37" transform="rotate(40 50 50)" />
    <path d="M50 4 L51 8 L49 8 Z" fill="#D4AF37" transform="rotate(50 50 50)" />
    <path d="M50 4 L51 8 L49 8 Z" fill="#D4AF37" transform="rotate(60 50 50)" />
    <path d="M50 4 L51 8 L49 8 Z" fill="#D4AF37" transform="rotate(70 50 50)" />
    <path d="M50 4 L51 8 L49 8 Z" fill="#D4AF37" transform="rotate(80 50 50)" />
    <path d="M50 4 L51 8 L49 8 Z" fill="#D4AF37" transform="rotate(90 50 50)" />
    <path d="M50 4 L51 8 L49 8 Z" fill="#D4AF37" transform="rotate(100 50 50)" />
    <path d="M50 4 L51 8 L49 8 Z" fill="#D4AF37" transform="rotate(110 50 50)" />
    <path d="M50 4 L51 8 L49 8 Z" fill="#D4AF37" transform="rotate(120 50 50)" />
    <path d="M50 4 L51 8 L49 8 Z" fill="#D4AF37" transform="rotate(130 50 50)" />
    <path d="M50 4 L51 8 L49 8 Z" fill="#D4AF37" transform="rotate(140 50 50)" />
    <path d="M50 4 L51 8 L49 8 Z" fill="#D4AF37" transform="rotate(150 50 50)" />
    <path d="M50 4 L51 8 L49 8 Z" fill="#D4AF37" transform="rotate(160 50 50)" />
    <path d="M50 4 L51 8 L49 8 Z" fill="#D4AF37" transform="rotate(170 50 50)" />
    <path d="M50 4 L51 8 L49 8 Z" fill="#D4AF37" transform="rotate(180 50 50)" />
    <path d="M50 4 L51 8 L49 8 Z" fill="#D4AF37" transform="rotate(190 50 50)" />
    <path d="M50 4 L51 8 L49 8 Z" fill="#D4AF37" transform="rotate(200 50 50)" />
    <path d="M50 4 L51 8 L49 8 Z" fill="#D4AF37" transform="rotate(210 50 50)" />
    <path d="M50 4 L51 8 L49 8 Z" fill="#D4AF37" transform="rotate(220 50 50)" />
    <path d="M50 4 L51 8 L49 8 Z" fill="#D4AF37" transform="rotate(230 50 50)" />
    <path d="M50 4 L51 8 L49 8 Z" fill="#D4AF37" transform="rotate(240 50 50)" />
    <path d="M50 4 L51 8 L49 8 Z" fill="#D4AF37" transform="rotate(250 50 50)" />
    <path d="M50 4 L51 8 L49 8 Z" fill="#D4AF37" transform="rotate(260 50 50)" />
    <path d="M50 4 L51 8 L49 8 Z" fill="#D4AF37" transform="rotate(270 50 50)" />
    <path d="M50 4 L51 8 L49 8 Z" fill="#D4AF37" transform="rotate(280 50 50)" />
    <path d="M50 4 L51 8 L49 8 Z" fill="#D4AF37" transform="rotate(290 50 50)" />
    <path d="M50 4 L51 8 L49 8 Z" fill="#D4AF37" transform="rotate(300 50 50)" />
    <path d="M50 4 L51 8 L49 8 Z" fill="#D4AF37" transform="rotate(310 50 50)" />
    <path d="M50 4 L51 8 L49 8 Z" fill="#D4AF37" transform="rotate(320 50 50)" />
    <path d="M50 4 L51 8 L49 8 Z" fill="#D4AF37" transform="rotate(330 50 50)" />
    <path d="M50 4 L51 8 L49 8 Z" fill="#D4AF37" transform="rotate(340 50 50)" />
    <path d="M50 4 L51 8 L49 8 Z" fill="#D4AF37" transform="rotate(350 50 50)" />
  </g>

  <!-- Inner Beaded Ring -->
  <circle cx="50" cy="50" r="40" stroke="#B8860B" stroke-width="1.5" stroke-dasharray="2 4" stroke-linecap="round" fill="none" />

  <!-- Royal Geometric Core -->
  <path d="M50 15 L85 50 L50 85 L15 50 Z" stroke="#D4AF37" stroke-width="1" fill="none" opacity="0.4"/>
  <path d="M50 20 L80 50 L50 80 L20 50 Z" stroke="#B8860B" stroke-width="1" fill="none" opacity="0.6"/>

  <!-- Center Shield/Crest Background -->
  <circle cx="50" cy="50" r="32" fill="#FFFFFF" />
  <circle cx="50" cy="50" r="30" stroke="#D4AF37" stroke-width="1" opacity="0.6" fill="none"/>

  <!-- Royal Crown Ornament (Top) -->
  <path d="M44 26 C48 20, 52 20, 56 26 C53 28, 47 28, 44 26 Z" fill="#D4AF37" />
  <circle cx="50" cy="22" r="1.5" fill="#FFD700" />

  <!-- Bottom Diamond Ornament -->
  <path d="M50 78 L47 72 L53 72 Z" fill="#B8860B" />
  
  <!-- Heritage Monogram: SH -->
  <text x="50" y="60" font-family="Georgia, 'Times New Roman', serif" font-size="32" font-weight="900" fill="#D4AF37" text-anchor="middle" letter-spacing="1">SH</text>
</svg>
